<svg width="249" height="147" viewBox="0 0 249 147" fill="none" xmlns="http://www.w3.org/2000/svg">
<path d="M15.08 124.3C15.9333 124.3 16.6867 124.467 17.34 124.8C17.9933 125.133 18.5 125.64 18.86 126.32C19.2333 127 19.42 127.86 19.42 128.9V135H17.5V129.12C17.5 128.093 17.26 127.32 16.78 126.8C16.3 126.28 15.6267 126.02 14.76 126.02C14.12 126.02 13.56 126.153 13.08 126.42C12.6 126.687 12.2267 127.08 11.96 127.6C11.7067 128.12 11.58 128.767 11.58 129.54V135H9.66V129.12C9.66 128.093 9.42 127.32 8.94 126.8C8.47333 126.28 7.8 126.02 6.92 126.02C6.29333 126.02 5.74 126.153 5.26 126.42C4.78 126.687 4.40667 127.08 4.14 127.6C3.87333 128.12 3.74 128.767 3.74 129.54V135H1.82V124.4H3.66V127.22L3.36 126.5C3.69333 125.807 4.20667 125.267 4.9 124.88C5.59333 124.493 6.4 124.3 7.32 124.3C8.33333 124.3 9.20667 124.553 9.94 125.06C10.6733 125.553 11.1533 126.307 11.38 127.32L10.6 127C10.92 126.187 11.48 125.533 12.28 125.04C13.08 124.547 14.0133 124.3 15.08 124.3ZM23.2175 139C22.7108 139 22.2175 138.913 21.7375 138.74C21.2575 138.58 20.8442 138.34 20.4975 138.02L21.3175 136.58C21.5842 136.833 21.8775 137.027 22.1975 137.16C22.5175 137.293 22.8575 137.36 23.2175 137.36C23.6842 137.36 24.0708 137.24 24.3775 137C24.6842 136.76 24.9708 136.333 25.2375 135.72L25.8975 134.26L26.0975 134.02L30.2575 124.4H32.1375L26.9975 136.06C26.6908 136.807 26.3442 137.393 25.9575 137.82C25.5842 138.247 25.1708 138.547 24.7175 138.72C24.2642 138.907 23.7642 139 23.2175 139ZM25.7375 135.34L20.8975 124.4H22.8975L27.0175 133.84L25.7375 135.34ZM45.9005 135.16C44.8338 135.16 43.8405 134.98 42.9205 134.62C42.0138 134.26 41.2271 133.76 40.5605 133.12C39.8938 132.467 39.3738 131.707 39.0005 130.84C38.6271 129.973 38.4405 129.027 38.4405 128C38.4405 126.973 38.6271 126.027 39.0005 125.16C39.3738 124.293 39.8938 123.54 40.5605 122.9C41.2271 122.247 42.0138 121.74 42.9205 121.38C43.8271 121.02 44.8205 120.84 45.9005 120.84C46.9671 120.84 47.9471 121.02 48.8405 121.38C49.7471 121.727 50.5338 122.227 51.2005 122.88C51.8805 123.52 52.4005 124.273 52.7605 125.14C53.1338 126.007 53.3205 126.96 53.3205 128C53.3205 129.04 53.1338 129.993 52.7605 130.86C52.4005 131.727 51.8805 132.487 51.2005 133.14C50.5338 133.78 49.7471 134.28 48.8405 134.64C47.9471 134.987 46.9671 135.16 45.9005 135.16ZM45.9005 133.38C46.6738 133.38 47.3871 133.247 48.0405 132.98C48.7071 132.713 49.2805 132.34 49.7605 131.86C50.2538 131.367 50.6338 130.793 50.9005 130.14C51.1805 129.487 51.3205 128.773 51.3205 128C51.3205 127.227 51.1805 126.513 50.9005 125.86C50.6338 125.207 50.2538 124.64 49.7605 124.16C49.2805 123.667 48.7071 123.287 48.0405 123.02C47.3871 122.753 46.6738 122.62 45.9005 122.62C45.1138 122.62 44.3871 122.753 43.7205 123.02C43.0671 123.287 42.4938 123.667 42.0005 124.16C41.5071 124.64 41.1205 125.207 40.8405 125.86C40.5738 126.513 40.4405 127.227 40.4405 128C40.4405 128.773 40.5738 129.487 40.8405 130.14C41.1205 130.793 41.5071 131.367 42.0005 131.86C42.4938 132.34 43.0671 132.713 43.7205 132.98C44.3871 133.247 45.1138 133.38 45.9005 133.38ZM58.3373 135L54.3973 124.4H56.2173L59.7173 134H58.8573L62.4973 124.4H64.1173L67.6773 134H66.8373L70.4173 124.4H72.1373L68.1773 135H66.3373L62.9973 126.24H63.5573L60.1773 135H58.3373ZM79.7456 124.3C80.6123 124.3 81.3723 124.467 82.0256 124.8C82.6923 125.133 83.2123 125.64 83.5856 126.32C83.959 127 84.1456 127.86 84.1456 128.9V135H82.2256V129.12C82.2256 128.093 81.9723 127.32 81.4656 126.8C80.9723 126.28 80.2723 126.02 79.3656 126.02C78.6856 126.02 78.0923 126.153 77.5856 126.42C77.079 126.687 76.6856 127.08 76.4056 127.6C76.139 128.12 76.0056 128.767 76.0056 129.54V135H74.0856V124.4H75.9256V127.26L75.6256 126.5C75.9723 125.807 76.5056 125.267 77.2256 124.88C77.9456 124.493 78.7856 124.3 79.7456 124.3ZM93.35 135V121H94.99L104.25 132.5H103.39V121H105.39V135H103.75L94.49 123.5H95.35V135H93.35ZM113.76 135.12C112.854 135.12 112.054 134.953 111.36 134.62C110.68 134.287 110.147 133.78 109.76 133.1C109.387 132.407 109.2 131.54 109.2 130.5V124.4H111.12V130.28C111.12 131.32 111.367 132.1 111.86 132.62C112.367 133.14 113.074 133.4 113.98 133.4C114.647 133.4 115.227 133.267 115.72 133C116.214 132.72 116.594 132.32 116.86 131.8C117.127 131.267 117.26 130.627 117.26 129.88V124.4H119.18V135H117.36V132.14L117.66 132.9C117.314 133.607 116.794 134.153 116.1 134.54C115.407 134.927 114.627 135.12 113.76 135.12ZM126.476 135.12C125.409 135.12 124.582 134.833 123.996 134.26C123.409 133.687 123.116 132.867 123.116 131.8V122.08H125.036V131.72C125.036 132.293 125.176 132.733 125.456 133.04C125.749 133.347 126.162 133.5 126.696 133.5C127.296 133.5 127.796 133.333 128.196 133L128.796 134.38C128.502 134.633 128.149 134.82 127.736 134.94C127.336 135.06 126.916 135.12 126.476 135.12ZM121.316 125.98V124.4H128.076V125.98H121.316ZM131.117 135V124.4H132.957V127.28L132.777 126.56C133.07 125.827 133.564 125.267 134.257 124.88C134.95 124.493 135.804 124.3 136.817 124.3V126.16C136.737 126.147 136.657 126.14 136.577 126.14C136.51 126.14 136.444 126.14 136.377 126.14C135.35 126.14 134.537 126.447 133.937 127.06C133.337 127.673 133.037 128.56 133.037 129.72V135H131.117ZM139.183 135V124.4H141.103V135H139.183ZM140.143 122.36C139.77 122.36 139.457 122.24 139.203 122C138.963 121.76 138.843 121.467 138.843 121.12C138.843 120.76 138.963 120.46 139.203 120.22C139.457 119.98 139.77 119.86 140.143 119.86C140.517 119.86 140.823 119.98 141.063 120.22C141.317 120.447 141.443 120.733 141.443 121.08C141.443 121.44 141.323 121.747 141.083 122C140.843 122.24 140.53 122.36 140.143 122.36ZM149.489 135.12C148.356 135.12 147.356 134.887 146.489 134.42C145.636 133.953 144.969 133.313 144.489 132.5C144.023 131.687 143.789 130.753 143.789 129.7C143.789 128.647 144.016 127.713 144.469 126.9C144.936 126.087 145.569 125.453 146.369 125C147.183 124.533 148.096 124.3 149.109 124.3C150.136 124.3 151.043 124.527 151.829 124.98C152.616 125.433 153.229 126.073 153.669 126.9C154.123 127.713 154.349 128.667 154.349 129.76C154.349 129.84 154.343 129.933 154.329 130.04C154.329 130.147 154.323 130.247 154.309 130.34H145.289V128.96H153.309L152.529 129.44C152.543 128.76 152.403 128.153 152.109 127.62C151.816 127.087 151.409 126.673 150.889 126.38C150.383 126.073 149.789 125.92 149.109 125.92C148.443 125.92 147.849 126.073 147.329 126.38C146.809 126.673 146.403 127.093 146.109 127.64C145.816 128.173 145.669 128.787 145.669 129.48V129.8C145.669 130.507 145.829 131.14 146.149 131.7C146.483 132.247 146.943 132.673 147.529 132.98C148.116 133.287 148.789 133.44 149.549 133.44C150.176 133.44 150.743 133.333 151.249 133.12C151.769 132.907 152.223 132.587 152.609 132.16L153.669 133.4C153.189 133.96 152.589 134.387 151.869 134.68C151.163 134.973 150.369 135.12 149.489 135.12ZM162.675 124.3C163.542 124.3 164.302 124.467 164.955 124.8C165.622 125.133 166.142 125.64 166.515 126.32C166.889 127 167.075 127.86 167.075 128.9V135H165.155V129.12C165.155 128.093 164.902 127.32 164.395 126.8C163.902 126.28 163.202 126.02 162.295 126.02C161.615 126.02 161.022 126.153 160.515 126.42C160.009 126.687 159.615 127.08 159.335 127.6C159.069 128.12 158.935 128.767 158.935 129.54V135H157.015V124.4H158.855V127.26L158.555 126.5C158.902 125.807 159.435 125.267 160.155 124.88C160.875 124.493 161.715 124.3 162.675 124.3ZM174.269 135.12C173.202 135.12 172.375 134.833 171.789 134.26C171.202 133.687 170.909 132.867 170.909 131.8V122.08H172.829V131.72C172.829 132.293 172.969 132.733 173.249 133.04C173.542 133.347 173.955 133.5 174.489 133.5C175.089 133.5 175.589 133.333 175.989 133L176.589 134.38C176.295 134.633 175.942 134.82 175.529 134.94C175.129 135.06 174.709 135.12 174.269 135.12ZM169.109 125.98V124.4H175.869V125.98H169.109ZM181.95 135.12C181.07 135.12 180.23 135 179.43 134.76C178.643 134.52 178.023 134.227 177.57 133.88L178.37 132.36C178.823 132.667 179.383 132.927 180.05 133.14C180.717 133.353 181.397 133.46 182.09 133.46C182.983 133.46 183.623 133.333 184.01 133.08C184.41 132.827 184.61 132.473 184.61 132.02C184.61 131.687 184.49 131.427 184.25 131.24C184.01 131.053 183.69 130.913 183.29 130.82C182.903 130.727 182.47 130.647 181.99 130.58C181.51 130.5 181.03 130.407 180.55 130.3C180.07 130.18 179.63 130.02 179.23 129.82C178.83 129.607 178.51 129.32 178.27 128.96C178.03 128.587 177.91 128.093 177.91 127.48C177.91 126.84 178.09 126.28 178.45 125.8C178.81 125.32 179.317 124.953 179.97 124.7C180.637 124.433 181.423 124.3 182.33 124.3C183.023 124.3 183.723 124.387 184.43 124.56C185.15 124.72 185.737 124.953 186.19 125.26L185.37 126.78C184.89 126.46 184.39 126.24 183.87 126.12C183.35 126 182.83 125.94 182.31 125.94C181.47 125.94 180.843 126.08 180.43 126.36C180.017 126.627 179.81 126.973 179.81 127.4C179.81 127.76 179.93 128.04 180.17 128.24C180.423 128.427 180.743 128.573 181.13 128.68C181.53 128.787 181.97 128.88 182.45 128.96C182.93 129.027 183.41 129.12 183.89 129.24C184.37 129.347 184.803 129.5 185.19 129.7C185.59 129.9 185.91 130.18 186.15 130.54C186.403 130.9 186.53 131.38 186.53 131.98C186.53 132.62 186.343 133.173 185.97 133.64C185.597 134.107 185.07 134.473 184.39 134.74C183.71 134.993 182.897 135.12 181.95 135.12Z" fill="#1E266E"/>
<path d="M29.61 92.84C25.7367 92.84 22.1433 92.21 18.83 90.95C15.5633 89.69 12.7167 87.9167 10.29 85.63C7.91 83.3433 6.04333 80.66 4.69 77.58C3.38333 74.5 2.73 71.14 2.73 67.5C2.73 63.86 3.38333 60.5 4.69 57.42C6.04333 54.34 7.93333 51.6567 10.36 49.37C12.7867 47.0833 15.6333 45.31 18.9 44.05C22.1667 42.79 25.7133 42.16 29.54 42.16C33.4133 42.16 36.96 42.79 40.18 44.05C43.4467 45.31 46.27 47.0833 48.65 49.37C51.0767 51.6567 52.9667 54.34 54.32 57.42C55.6733 60.4533 56.35 63.8133 56.35 67.5C56.35 71.14 55.6733 74.5233 54.32 77.65C52.9667 80.73 51.0767 83.4133 48.65 85.7C46.27 87.94 43.4467 89.69 40.18 90.95C36.96 92.21 33.4367 92.84 29.61 92.84ZM29.54 83.18C31.7333 83.18 33.74 82.8067 35.56 82.06C37.4267 81.3133 39.06 80.24 40.46 78.84C41.86 77.44 42.9333 75.7833 43.68 73.87C44.4733 71.9567 44.87 69.8333 44.87 67.5C44.87 65.1667 44.4733 63.0433 43.68 61.13C42.9333 59.2167 41.86 57.56 40.46 56.16C39.1067 54.76 37.4967 53.6867 35.63 52.94C33.7633 52.1933 31.7333 51.82 29.54 51.82C27.3467 51.82 25.3167 52.1933 23.45 52.94C21.63 53.6867 20.02 54.76 18.62 56.16C17.22 57.56 16.1233 59.2167 15.33 61.13C14.5833 63.0433 14.21 65.1667 14.21 67.5C14.21 69.7867 14.5833 71.91 15.33 73.87C16.1233 75.7833 17.1967 77.44 18.55 78.84C19.95 80.24 21.5833 81.3133 23.45 82.06C25.3167 82.8067 27.3467 83.18 29.54 83.18ZM86.9925 53.78C89.9792 53.78 92.6392 54.3867 94.9725 55.6C97.3525 56.7667 99.2192 58.5867 100.573 61.06C101.926 63.4867 102.603 66.6133 102.603 70.44V92H91.6825V72.12C91.6825 69.0867 91.0058 66.8467 89.6525 65.4C88.3458 63.9533 86.4792 63.23 84.0525 63.23C82.3258 63.23 80.7625 63.6033 79.3625 64.35C78.0092 65.05 76.9358 66.1467 76.1425 67.64C75.3958 69.1333 75.0225 71.0467 75.0225 73.38V92H64.1025V54.34H74.5325V64.77L72.5725 61.62C73.9258 59.1 75.8625 57.1633 78.3825 55.81C80.9025 54.4567 83.7725 53.78 86.9925 53.78ZM135.041 92.84C128.088 92.84 122.651 90.9033 118.731 87.03C114.811 83.1567 112.851 77.6267 112.851 70.44V43H124.191V70.02C124.191 74.6867 125.148 78.0467 127.061 80.1C128.974 82.1533 131.658 83.18 135.111 83.18C138.564 83.18 141.248 82.1533 143.161 80.1C145.074 78.0467 146.031 74.6867 146.031 70.02V43H157.231V70.44C157.231 77.6267 155.271 83.1567 151.351 87.03C147.431 90.9033 141.994 92.84 135.041 92.84ZM193.037 67.43C191.171 67.43 189.561 66.8 188.207 65.54C186.901 64.2333 186.247 62.5767 186.247 60.57C186.247 58.5633 186.901 56.9533 188.207 55.74C189.561 54.48 191.171 53.85 193.037 53.85C194.951 53.85 196.561 54.48 197.867 55.74C199.174 56.9533 199.827 58.5633 199.827 60.57C199.827 62.5767 199.174 64.2333 197.867 65.54C196.561 66.8 194.951 67.43 193.037 67.43ZM193.037 92.56C191.171 92.56 189.561 91.93 188.207 90.67C186.901 89.3633 186.247 87.7067 186.247 85.7C186.247 83.6933 186.901 82.0833 188.207 80.87C189.561 79.61 191.171 78.98 193.037 78.98C194.951 78.98 196.561 79.61 197.867 80.87C199.174 82.0833 199.827 83.6933 199.827 85.7C199.827 87.7067 199.174 89.3633 197.867 90.67C196.561 91.93 194.951 92.56 193.037 92.56Z" fill="#1E266E"/>
</svg>
